<?xml version="1.0" encoding="UTF-8"?>
<svg xmlns="http://www.w3.org/2000/svg" version="1.1" viewBox="0 0 1577.1 1545.29">
  
  <g>
    <g id="katman_1">
      <path d="M784.7,76.19c-6.4.5-12.6,1.9-18.9,2.4-23.4,1.5-44.2-5.1-62.1-20.3-11.6-9.9-18.3-21.1-25.2-34.5,7.5,1.2,14.7,2.4,22.3,2.1,14.8-.5,29.9-6.1,43.3-12.1,8-3.5,15.8-7.3,24.3-9.7,36.8-10,81.6-2.3,105.3,30.1,7.8,10.7,9.6,22.1,7.5,35-.8,4.7-3,10.6-2.9,15.2,5.2-9.4,7.5-16.8,8.8-27.4,10.4,20.6,14.9,42.2,13.3,65.4-.8,11.8-3.6,23.8-6.2,35.3,2.9-1.5,5.6-3.3,8.9-3.6,2,.9,3.4,1.4,4.4,3.5,6.4,14-5.3,56.8-11.9,71.1-3.1,6.6-6.7,10.3-13.2,13.7l2.9,69.6c25.4,12.8,51,26.1,74.4,42.3,3.2,2.2,25.5,20.4,26.5,20.6.6.1,4-.9,4.8-1.1l14.6-2.7c7.4-1.1,14.6-1.3,22.1-1.1,33.3.5,68.2,15.3,92.8,37.5,4.7,4.2,9.2,8.8,13.4,13.5,1.4,1.5,3.8,5.2,5.4,6.2.5.3,1.2-.1,1.8-.2,18.5-2.1,36.7.2,53.9,7.4,14.8,6.1,25.3,14.8,37.2,25.2,10.1-20.9,20.8-42,28.6-63.9,1.7-4.8,4.3-10.6,4.7-15.6,1.4-14.4-.6-31.2-3.1-45.4-5.9-.7-11.8-1.8-17.6-3.4-3.2-.9-15.4-6.3-17.6-5.5-3.3,1.1-6.1,2.3-9.5.5-4.3-2.3-6.4-9.9-10.8-11.7-3.4-1.5-9.9-1.5-13.7-2.3-5.2-1-10.3-2.7-15.3-4.3l-.7.6c-3.4,2.9-6.8,4.7-11.1,6.1-6.4-5.7-11.6-12.1-17.2-18.5-5-5.7-10.4-11.4-14-18.1,3.9-8.9,8-17.5,14.3-25-3.3-7.1-7.4-15-4.6-23.1,1.2-3.6,3.9-7.8,6.7-10.4,6.6-6.1,14.7-11.1,21.9-16.6l25.7-19.6c4.8-3.5,9.8-7.5,15.3-9.8,6.4-2.7,13.5-1.1,19.7,1.5,10.5,4.4,19.1,13.3,27.8,20.5,14.7,12.2,29.7,23.5,43.4,36.8l28,28c4.3,4.5,8.4,9.7,13,13.9,2.2,2,6.4,1.3,7.9,3.3-.6,6.4-1.8,13.3-1.3,19.8.6,9,4.9,18.4,8.3,26.7l13,31.9c30.7,80.1,52.3,164.7,32.9,250.1-6.8,29.9-17.6,58-27.8,86.8l-68.8-2.5-23.4-1.5c-3.7-.3-7.7-1.2-11.4-.9-5.3.5-12.3,4.8-17.4,6.9-7.2,2.9-14.5,5.5-22,7.6-44.6,12.7-86.1,10.9-128.2-9.6-10.6-5.1-21.7-10.8-30.4-18.8-12.4,29.2-28.3,54.5-49.3,78.2-10.7,12.1-23.7,22.2-33.5,35-15.8,20.7-23.6,48.5-24.1,74.3-.2,8.9.7,17.9,1.5,26.7.8,9.3,1.5,18.9,3.1,28.2,71.6,6,142.6,16.4,213.4,28.7,94.8,16.4,188.6,36.2,280.9,63.5l47,14.3c4.8,1.6,10.6,2.9,14.9,5.3l-89.3,326.3c-36.1-12.9-73.1-22.6-110.2-32.2l-195.5-41.2-172.6-20.8c-221-18.1-443.7-.7-660,47.8l-110.8,28.2-58.8,18.3-89.4-326.8,135.3-39.4c138.8-36.1,281.2-60.9,424.1-73.5,2.3-34.2.5-72.9-13.2-104.7-7.4-17.2-18.1-32.2-30.4-46.2l-23-25c-16.4-19.2-28.7-41.5-37-65.2-13.3,7.5-26.5,15.4-40.6,21.4-36.1,15.4-75.8,16.7-113.4,6.2-6.9-1.9-13.8-3.9-20.6-6.5-6.5-2.4-15.2-8.2-21.9-8.6-5.5-.4-12,1.1-17.5,1.6l-52.9,3.9c-7,.3-15.9,1.5-22.4-1.2-8.8-3.7-15.5-13.1-20-21.1-6.3-11.2-9.9-24-13.7-36.2-23.2-73.8-14.8-148.9,6.1-222.1,6.6-23.1,14.9-45.8,24-68.1,5.3-12.9,13.1-27,16.1-40.6.6-2.7.9-5.4.8-8.1,0-2.1-1.8-14.3-1.2-15.3.2-.4.8-.5,1.1-.7,6.2-4.1,11.1-9.6,16.3-14.9l19-19.6c22-22.1,44.9-43.7,71.5-60.2,8.5-5.3,18.6-12.7,29.2-10.5,2.6.5,5,1.5,7.3,2.9,9.2,5.5,17.8,13.1,26.4,19.5l25.3,18.8c4.3,3.3,9.8,6.7,12.7,11.3,2.9,4.6,1.9,9.3.7,14.3l-6,17c6.6,5.3,11,11.1,11.8,19.9.3,3.7-.3,7-2.9,9.7-5.6,5.9-13.3,10.1-20,14.8-5.3,3.7-11.9,10.9-18.9,10.7-4.1-.1-7.9-1.7-11.6-3.2-14.4,11.2-28.9,21.9-48.1,21.2-8-.3-15.5-1.7-23.6-1.5-1.3,11.3-7.5,49.7-3.7,58.3l33.8,72.2c24.8-20.4,55.4-34.3,88.2-34,34.2-33.5,80-55.8,128.5-55.3,10.3.1,21.1,1.4,31.1,3.8,28.6-25.9,64.1-46.7,99.6-61.4l1.5-50.6c.4-6.6,2.2-14.8,1.6-21.3-8.9-3.9-13.4-7.7-17-16.9l-2.5-9c-1.7-7.4-1.2-15.2-2.2-22.8-1.1-8.7-8.2-26.7-2.7-34.4,1.6-2.2,3.6-2.8,6.1-3.4,4.1.5,6.8,2.8,10,5.1-10.9-38.4-12.7-75.4,5.1-112.1,14,16.9,30,35.9,53.3,38.2,10.5,1,21.3-1.5,31.2-5,3-1.1,6.7-2.1,9.2-4l.4-.5-.4.5v.1ZM724.2,151.79l4.5-56c-2.2-1.9-4.2-3.6-6.8-4.9-16.1,28-13,59.3-17.4,89.9-1.3,8.9-6.4,19.3-4.2,28.2,2.3,9.3,13.3,22.8,21.7,27.1,2.6,1.4,5.7.8,8.4-.2,1-.4,1.9-.9,2.8-1.4,1.5,10.8,5.2,29.4,14.2,36.3,2.5,1.9,4.9,2,7.9,2.2,5.7.3,11.6-.7,17.2-1,5.9-.4,11.9-.3,17.9-.3,11,0,23.1,2.9,33.8,1.5,3.3-.4,6.4-1.7,9.3-3.3,3.7-10.2,7.1-21.7,8.6-32.4l.3-1.5c3,2.1,3.4,2.2,7.1,2.2,9.1-4.6,22.2-17.2,25.6-27.1,4-11.9-2.1-22.7-3.6-34.5-.5-3.8,0-7.6-.5-11.4-.9-6.5-3.2-12.4-4.9-18.7-1.6-6-2.6-12.3-4.4-18.2l1.9,27.8c-2.4-5.2-3.4-11.1-4.5-16.7-2.4-12.6-3.6-25.2-3.7-38-6.1,0-12.1,0-18.2.8-11.8,1.7-21.8,5.5-33,9.1-13.1,4.2-28.2,4.8-41.5.9-9.4-2.8-18-7.6-26.7-12l-11.9,51.5.1.1ZM679.6,160.69l-1.7.6c.5,8.9,5.2,17.2,8.5,25.3-2.1,9.5-2.9,22.8,1.6,31.7l.3.7-.3-.7c-.5-8.9-1.9-17.3.1-26.2.9-3.8,2.7-7.4,4.2-11-3.3-6.9-8-14.5-12.8-20.4h.1ZM883,227.89l-.4.4.4-.4c6-6.7,7.7-20.3,7.2-29-.1-2.7-1.1-7.3-.6-9.8.6-3.4,4.5-7.7,6.3-10.6,2-3.2,5.2-10.7,4.4-14.6l-1.5,1.1-15.3,22.2,2.6,3.6c3.5,5.3,3.6,12.3,2.2,18.4l-5.3,18.6v.1ZM1325.8,386.19l-8-22.5c-5.5-13.7-13.1-26.7-22.3-38.3,1.6,13,6.6,25.5,9.6,38.3l17.3,74.3c-4.8-6.2-8.6-13.6-12.5-20.5-5.9-10.4-11.8-20.9-16.5-31.9l-.3-.8c-1.7,4.6-2,10.6-2.7,15.5l-5.1,46-4.2-33.3-11.1,25c-12.3,26.2-25.8,51.9-26.4,81.5-.4,19.2,4.9,44.6,18.8,58.8,9.9,10.1,19.1,9.9,32,10.2-10.5-21-18.9-44.4-16.5-68.3,3.8,14.4,10,25.6,17.6,38.2,22.3-35.6,38.1-71.1,30.9-113.9,4.8,9,6.3,18.5,8.1,28.4,6.9,37.5,5.2,74.8,6.9,112.6,4.1-19.6,8.1-38.9,10.3-58.8,4.5-38.8,3.7-77.7.3-116.5l14.6,53.4c11.3,47.5,14,98.7,1.6,146.2-3.4,13.1-8.2,27.4-15.3,38.9-8.1,1.5-15.6,4.6-23.6,6-15.2,2.5-30.6,2.9-45.9,2.1l-24.3-2.1c23.8,6.9,49.3,9,74,10.7,9.7.7,19.1.6,28.8,1.8,14.9-34.4,22.7-71.2,26.4-108.3,1.3-13.2.7-26.6,0-39.9-3.3-64.6-25.4-124.2-45.5-184.9l-7.2-23.7c-2.5-9.1-5.1-19.1-11.3-26.5-5.8-6.9-12.8-13.2-19.1-19.6l-43.5-41.4c-9.4-8.5-20.3-20-31.3-26.2-3-1.7-5.7-2.3-9.1-2.7-4.8,1.3-8.6,4.8-12.5,7.7l-16.1,12.1c-7.8,5.8-19.2,11.9-25.3,19.4-1.9,2.4-1.9,5.1-1.4,8.1,1.3,9.2,5.8,22.1,11.2,29.6l.8,1.2.6.7.9,1.7.4.4-.4-.4-.9-1.7-.6-.7-.8-1.2c-2-4.7-4.7-9.8-5.2-14.9-.6-5.7,3.7-9.7,7.3-13.9,6.7-8,14.4-15.2,21.7-22.6,4.6-4.7,9.5-10.8,15.2-14l2,.3c.8,2.1.8,4.2-.1,6.3-1.2,2.9-4.5,5.6-6.7,7.7l-19.8,19.6c-2.2,2.4-5.4,5.3-6.7,8.3-.9,2.1-.5,3.3.2,5.4.8,2.2,2.5,6.4,4.3,7.9l.7-1.1c10-14.5,24-26.2,35.1-39.9,2,5.3,3.5,9.3.8,14.6-3.8,7.5-11.9,15-17.3,21.6-1.9,2.3-4.8,5.3-5.4,8.3-.4,2.1.4,5.1,1,7.1,2.4,7.9,6.7,15.7,10.4,23,2.3,4.6,4.6,9.8,8,13.7,5.8-2.5,10.2-5.6,15-9.7-4,1.2-8,2.8-12.1,3.5-3.2-2.6-4-8.1-4.4-12-.2-2.4-.2-4.8.4-7.2-4.8-4.1-8.8-7.7-12.4-12.9,3.2-.4,6.4-.9,9.6-1,5.6-.2,11.9,2,15.6-3.1,1.6-2.3,2.9-4.9,4.1-7.4,10.8,14.7,21.5,29.9,40.8,32.8,7.3,1.1,12.4-.3,19.5-1.4-9.8,11.6-18.2,19-33.9,20.4-6,.5-11.9,0-17.9-.5,13.7,6,28,6.1,42,.6,14.1-5.5,24.3-15.2,36.8-23.1-3.6,6-9.3,13.6-11,20.3-1.8,6.9,1.4,17.4,2.7,24.2l6.3,36.9c.8,5.7,2.1,11.7,1.9,17.5h.1ZM849,274.59l8.6-23.8c.8-2.4,2.5-6.3,1.7-8.8l-.3-.6c-3.4,2.9-6.5,6.2-9.6,9.3-5.5,5.4-9.3,8-12.1,15.6l-1.1,2.8,8.9-4.1c-.4,3.8-3.3,7-6.3,9.3-15,11.4-37.6,3.4-54.6,3.7-11.1.2-21.5,3.7-32.8,1.8-6.1-1-12.9-4.6-16.3-9.9l-2.5-4.7.2-.9,5.9,2.3.8-.8c-4.4-9.1-15.3-17.9-23.9-22.9l12,32.8c-3-3-6.7-6.2-9.1-9.7-2.6-3.9-4.2-8.7-6.2-12.9-.9,4.4-3.2,11.2-2.6,15.6.2,1.6,2.3,4.7,3.2,6.1,6.1,9.4,15.6,20,24.1,27.4l.4.4-.4-.4-4.9-20.4c4.9,6.6,9.2,13.8,12.9,21.1,4,7.8,6.5,18,13.1,24,1.8,1.6,3.6,3,6,3.5,6.1,1.4,14.3-.2,20.6-.2,7.7,0,15.8,1.1,23.4.3,5.3-.5,9.5-2.7,12.8-6.9,3.4-4.3,5.2-10.4,7.3-15.5,3.8-9.1,8-18.3,14.4-25.9-.7,7.1-3.3,14.6-4.9,21.6l19.9-21.8c2.7-3.2,7.6-8.8,8.9-12.6.5-1.5,0-4-.1-5.5l-1.1-15.8-9.8,19.6c-1.7,2.8-4.2,4.9-6.6,7l.1-.1ZM869.2,293.59c-7.4,13.4-12.8,28.4-19.3,42.3-12.2,26.1-28.2,49.5-32.9,78.6-.4,2.6-1.6,6.7-1,9.1,2.4-1.2,8.5-3.2,10.1-5,1.1-1.2,2.5-6.6,3.2-8.5l14.3-39.2c3.4-9.8,5.9-20.8,10.2-30.2-.9,8.9-3.3,17.5-4.2,26.4-1.4,14.1-1.2,28.6-1.1,42.7,11.4,1.2,23,2.6,34.4,2.5,8.5,0,17-1,25.5-1.9l-4.5-.9c-4.5-.8-9.8-3.6-13.7-6-11.4-7.3-17.4-15.8-20.4-29.1-2.2-9.5-2.3-19.8-2.3-29.5,0-3.2-.5-7.4.4-10.4,10,27.9,38.8,40.1,63.4,52.6,6.3,3.2,13.1,8.1,19.6,10.7,3.8,1.5,14.4-3.3,18.8-4.7-15.2-13.6-34.3-24.4-52.2-34.2l-38.7-21.6c-3.4-2-8.2-4.3-10.8-7.2l1.3-36.6.5-.4-.5.4-.1.1ZM300.9,455.09c-10.8-16.8-16.4-44.6-17-64.5-14.2,17.4-21.5,37.2-30.9,57.1l27.4-123.5c-14.1,14.8-24.6,38.8-33.1,57.4,1-6.2,2.9-12.1,4.2-18.2l6.9-31,4.8-16c.5-1.7,1.6-5,1.4-6.6-.3-2.2-1.7-5.1-2.4-7.2-2.4-7.3-4.7-12.9-9.1-19.2-12.2,18.9-17.1,44.4-24,65.7l-15.7,46.6c-11.8,38.4-21.7,79.6-24.1,119.7-1.9,31.9,1,64.8,7.8,96,2.4,11.2,5.6,22.1,9.5,33,2.9,8.3,6.5,17.7,12.2,24.4l91.4-9.4c4.1-.4,15.8,7,20.2,8.8,17.4,7.3,34.4,12.4,53.1,14.7,44,5.4,85.5-16.7,118.8-43.2l10.3-8.3,9.4,30.7c4.7,13.5,10.9,26.6,18.5,38.7,25.2,39.8,68.8,69.6,82.6,116.2,7.2,24.2,7.1,49.7,6,74.7l-1,13.6c0,1.1-.7,3.8-.4,4.7.2.5.7.8,1.1,1.2l1.6-1.1c2-16.4,2-33.2,3.2-49.6,1.3-18.3,4.2-37.1,3.4-55.4-.4-8.3-2.3-16-3.9-24,3,4.8,5.1,9.4,7.5,14.6-.5-7.6-.2-15.2-6.3-20.7-11.6-10.4-25.9-17.9-37.9-28.1-8-6.9-14.9-14.8-21.8-22.8-26.1-30.4-44.4-65.2-54.5-104-14.9,9.7-29.5,19.8-45.2,28.2-23.5,12.6-50.3,22-77.2,23-17,.7-33.8-1.8-50.4-5.3-9.5-2-19.4-7-28.8-8.1-9.8-1.2-20.5,0-30.4,0-16.3,0-33-1-49.1-3.3-4.6-.7-11.4-1.2-15.5-3.4-2.1-1.1-3.7-3-4.9-5-4.7-7.7-7.5-18.1-10.2-26.7-16.4-54.1-10.6-111.7,4-165.5l14.3-48.2c0,5.5-1,10.9-1.5,16.4l-2.7,37c-1.4,31.1,1.3,61.9,7.5,92.3l7,28.4-.4-31c.7-26.4,3.4-52.3,9.7-78,1.1-4.5,2-11.5,4.3-15.2.3,29.9,2.5,67,25.3,89.3,4.1,4,9.1,7.9,14.9,8.9,9.4-11,14.7-22.3,19.5-35.8-.3,6.3-2.1,12.2-3.8,18.2-5.8,20.7-15.8,36.7-27.5,54.5,23.3,3.2,54.2,3,73.8-11.7l4.4-3.7,1.1.7c.8,12.7-3.3,24.5-11.7,34-7.8,8.8-18,14.4-28.4,19.4,45.8-3.1,88.8-10,131.8-27.3,10.9-4.4,23.9-9.9,33.1-17.3l.5-.4-.5.4c-4.7,1.1-9.3,3.1-14.1,4.3-9.2,2.4-18.8,3.6-28.2,3.7-33.9.3-63.5-15.2-87.3-38.4-10.7,13.1-22.6,17.3-38.5,21.2.8-2.2,4.1-5,5.5-7.1,3.3-4.8,6-10.1,7.9-15.6,3.2-9.3,3.6-18.8,3.3-28.5-.8-37.9-16.9-69.3-33.1-102.4-.4,7.9-1.2,17.3.5,25l1.7,7.8.1.2ZM750.7,460.79c8.9,1.3,18.9,4.1,27.2,7.8-2.6-11.1-5.9-20.3-16.1-26.6-31.6-19.3-70-13.3-105-20.5-15.9-3.3-31-8.1-46.4-13.3-12.6-4.3-25.6-9.3-38.9-11-16.3-2-32-1.1-47.9,2.9-20.3,5.1-40.5,15.6-57.4,27.8-3.6,2.6-7.7,5.2-10.8,8.3,25.6,2,48.4,12.3,73.4,16.7,11.9,2.1,24.5,2.4,36.6,3.6l49.3,6.8c3.3.6,9.7,1,12.3,2.7l-77.7,13.5c12.6,11.1,25.4,22,39.3,31.5,37.5,25.7,81.6,44.7,125.8,55.3,14.3,3.4,30.7,7.3,45.5,6.7,2.6,0,5.2-.6,7-2.6,2.9-3.2,3.3-8.3,2.8-12.3-1.2-10-9.5-17.5-17.2-23.1-14.7-10.6-32.5-17.4-49.5-23.2,4.3-.7,10.3,1.9,14.6,3,17.7,4.5,37.1,8.8,53.9,16.1,0-11.5-.5-17.3-8.9-25.8-11.3-11.4-25.9-17.8-40.7-23.3-5.3-2-11.4-3.7-16.4-6.4l69.5,18.6c1.8-3.8,1.9-10.6,2.5-14.9-8.1-8.3-16.9-12.2-26.4-18.2l-.6-.4.2.3ZM863.6,513.79c-16.6,6.7-33.3,14.6-47.5,25.8-5.4,4.3-10.3,10-11.1,17.2-.6,6.2.3,11.2,4.2,16,9.5,4.9,39.5-1.9,50.1-4.6,35.7-9.1,70.6-24.3,102.9-41.9,19.1-10.5,37.7-21.6,54.8-35.2,4.5-3.6,12.4-8.7,15.2-13.4-20-6.5-40.6-10.3-61.3-13.4,37.3-6,75-7.7,110.9-20.3-7.8-8-17.2-15.2-26.2-21.7,14.3,5.5,27.8,12.5,38.3,23.8,7.6.5,16.9-1.8,24.5-2.8-4.1-7-10-12.3-16.2-17.6-12.6-10.7-26.1-19-41.8-24.2-16-5.3-34.2-7.8-50.9-5.8-14.6,1.7-28.4,7.2-42.3,11.9-13.2,4.5-26.4,8.5-40.1,11.5-11.2,2.5-22.4,4.6-33.8,5.7-25.7,2.6-50.8,2.2-74.5,14.3-13.6,6.9-17.5,15.1-22.1,29.2,8.5-3.4,17.8-5.4,26.8-6.7-10.6,6-19,10.1-27.4,19.3l3,13.3,43.1-12c6.1-1.4,12.7-3.5,19-3.8-16.2,7.1-33.5,12.9-47.3,24.4-4.2,3.5-8.3,7.5-10.3,12.6-2,4.9-2,10.8-1.6,16l41.6-12.8c6.3-1.7,13.3-3.9,19.8-4.7l.2-.1ZM1101,587.79l.4.5c4.9,4.7,13.7,7.8,19.9,10.5,39.8,17.4,79.5,22.1,122.1,27.5-.2-1.7-4.3-6.1-5.5-7.7-11.5-15.2-23.7-30.4-38.3-42.7,5.8.3,12.3,3.3,17.7,5.5,19.6,8.2,38.1,13.4,59.2,8.5l-19.5-9.4c-10.6-5.6-20.6-13.3-32.7-15.1-14.2-2.1-29.7,8.8-42.4,14.5-7.8,3.5-15.8,6.4-24.1,8.2-19.2,4.1-37.1,2.2-56.3.3l-.4-.5-.1-.1ZM662.5,803.89l.3.4c2.7,4.9,6.7,9.6,9.8,14.4,7,11.1,13,22.5,18.4,34.3,8.2,17.9,13.3,37.7,22.5,55.1-.2-6.2-1.7-12.4-2.8-18.5l-7.3-35.9-13.9-64.8-13-48.6-7.2,9.5,10.7,19.4c-1.9-.2-5-2.7-6.6-3.7l-22.1-15.1c5.7,8.6,12.5,16.3,18.5,24.8,9.3,13.3,16.6,29.6,20.4,45.4l-26-15.6-1.3-.7-.3-.4h-.1ZM354,193.39l-1.4,2.1h.8c8.4,1.4,12.8,6.4,17.6,12.9,4.4,6.1,8.7,12.5,14,18,8.1,8.4,17.5,14,23.2,24.7,2.4-5.4,4.9-9.6,4-15.6-3.7-5.5-48.2-40.8-53.3-41.8-1.6-.3-3.2-.3-4.8-.2l-.1-.1ZM346.2,200.59c-2.9,1.2-5.8,2.5-8.4,4.3-12.2,8.9-23.5,20.4-34.8,30.5l-34.1,30.8c-5.2,4.9-11.1,10.1-15.1,16,7.6,9.2,16.4,16.3,27.9,20.2,5.8,2,11.7,2.9,17.5,4.9,8.4,2.8,17.2,6.4,26.1,7.2,2,.2,6.1.6,8,0,1.7-.5,4.5-2.7,6.1-3.7,7.4-4.7,14.2-10.4,20.7-16.2l10.2-10.2c-.1-3.9-.4-7.4-1.4-11.3-3.6-9.8-18.9-43.1-27.8-47.3-4.6-2.2-10.6-.6-15.4,0,5.2-2.8,14.4-6.9,20.2-4.9,10.6,3.7,31.6,35.4,36.4,46.3l.4,1c2.2,5.1.9,13.7,1,19.5,1.8-5.8,3.3-12.2,5.6-17.8,1.5-3.7,5.6-8.7,6.3-12.1.3-1.3-.7-4.4-1.4-5.6-3.7-6.3-12.7-11.2-17.9-16.9-3.3-3.6-6.1-7.6-8.5-11.8-3.7-6.6-7.8-21.1-15.7-23.1-1.9-.5-4.2-.2-6.1,0l.2.2ZM688.9,220.69h.5-.5ZM882.1,229.39h.6-.6ZM1158.6,269.79l-5.5,8.8,15.2,17.4c1.1-1.8,3.3-3.9,2.4-6.1l-12.2-20.2.1.1ZM416,273.09c-6.2,3.9-16.4,12.8-18.1,20.2l-.4,2.2,1.1.5,3.3-3.1c4.4-3.4,8.8-6.5,13.5-9.4,1.4-.8,5.3-2.5,6.1-3.5.4-.4.3-1.1.4-1.6-.8-2.4-1.2-3.6-3.3-5.3h-2.7.1ZM707.1,290.69l2.2,27.1c.3,3.9,1.1,8.5.5,12.3-7.8,5.8-16.9,10.1-25.4,14.7-16.7,9-33.4,17.7-49.4,28-10.2,6.5-19.3,12.4-27.7,21.3,6.1,1.3,11.5,3.5,17.4,5.1l.6-.6c4.7-4,10.5-6.7,15.9-9.7,26.1-14.3,56.9-22.7,69.3-52.5.9,5.3.5,10.7.3,16-.6,14.5-2.8,29.1-11.4,41.2-2.8,3.9-6.7,7.6-10.8,10.1-5.8,3.2-11.7,5.8-18,7.9,19.6,2.5,38.7.3,58.3-1.5.1-10.2.9-21.1,0-31.3l-3.2-24.7c-.7-4.7-2.4-10.6-1.9-15.2l26.6,80.9,10.5,4c-3.3-29.8-16.9-53.5-29.6-80l-23.9-53.1h-.3ZM413.6,452.49c-24.4,3.9-47.1,15.7-63.5,34.3l3.8,24.3c19.8,4.7,39,12,59.1,15.2,7.5,1.2,15.1,1.3,22.7,1.4,19-1.2,39.3-6.9,52.3-21.9,4.5-5.2,10-13.5,9.4-20.7-.5-5.8-4.7-9.9-9.1-13.2-5.3-3.9-11.9-7-17.9-9.6-18.8-8.2-36.2-11.4-56.8-9.8ZM1150.5,453.29c-29.6,4-55.5,15.8-81,30.8,18.2,19,43.9,43.2,72.1,43h1.5c18.7-1.4,35.6-8.9,53.4-14.3,8.7-2.7,17.7-4.3,26.7-5.8-1.1-5.7-2-11.7-4.2-17.2-4-10-12.4-19.3-21.1-25.3-13.3-9.3-31.5-12.9-47.5-11.2h.1ZM520.8,496.59c14,42.3,37,78.3,78,98.8,18.5,9.3,42.9,15,63.5,15.4-10.6-3.2-21.2-5.7-31.5-9.8-50.8-20.4-82.5-58.6-110-104.4ZM1038.9,509.09c-11.5,19.6-24.5,38.2-39.1,55.6-8.7,10.3-18.3,20.8-29.6,28.2-11.9,7.7-25.3,12.5-38.9,16.1-2.4.6-5.2.9-7.4,2.1h0c7.9.3,15.6-1,23.3-2.5,19.1-3.5,40-9.3,54.6-22.7,17-15.6,25.1-38.8,32.5-60.1,1.5-4.3,4.5-10.5,4.9-15,0-.9,0-1-.2-1.8l-.1.1ZM788.2,588.69c-3.7,10.9-7.1,22-12.9,32.1-1.7,2.9-3.4,6.1-6.6,7.5-6.1,2.7-13.9,3.8-20.4,5.2l-47.8,9.5c-5.5,1-13,1.5-17.9,3.8,7.3,9.2,15.8,17.5,23.8,26,4.1,4.3,9.7,11.7,15.2,14.1,10.1-3.2,20.7-4.6,31.2-6.5,3.7-.7,7.9-2.1,11.6-2,2.9,0,7.4,3,9.6,2.8.3,0,2.8-3.9,3.1-4.5,4.5-8.2,7.6-18.2,10.7-27.1l1-1.4c2.4,9.8,5.1,25,12.6,31.9,3.8,1.2,6.9-1.6,10.7-1.2,14.8,1.5,29.3,5.3,44.3,6.5l21.8-23.5c4.5-5,9.4-9.8,13.3-15.2l-58.5-12.1c-7.7-1.7-19.5-3.1-26.2-7.4-1.8-1.1-3.4-4.1-4.5-5.8-5.9-9.9-10.2-21.9-14.1-32.7h0ZM216.3,609.59c3.3,10.9,7.2,27.7,17.8,33.7,5.9,3.3,12.8,4.5,19.5,4.9-6.8-4.3-13.8-8.9-19.5-14.5-7.1-6.9-12.7-15.7-17.8-24.2v.1ZM1057.1,615.49c-10.7,31-23.8,63.5-43.7,89.9-7.7,10.2-17.1,18.7-26.3,27.4l-28.5,26.9-14,13c-2.2,2.1-5,4.5-6.6,7.1-5.6,9.1-6.8,26.3-6.3,36.7,3.3-12,6.4-21.8,12.5-32.7-1.8,6.9-4,14-4.8,21.1-2.9,25.8-.4,52.3,1.9,78,.9,10.4,1.3,22.3,4.6,32.2,1.3-12.3-.1-25.6.1-38,.6-28.3,4.5-57.1,13.8-83.9,2.1-6,4-12.2,7.9-17.3,10-13.3,24.7-23.3,36.2-35.2,30-32.2,48.5-66.8,59.9-109.3,35.9,30.8,77.6,57,126.8,53.5,27.5-2,53.3-11.4,77.9-23.1l.2-.5c-2.7-1-10.3-4.7-12.7-4.6-1.8,0-5.6,2-7.5,2.6l-20.3,6.6c-44.2,12.5-91.9,5.2-130.9-19.2-14.5-9.1-27-20.2-40.2-31v-.2ZM1343.9,628.09c-4.9,3.5-9.8,6.9-15,9.9l-13.6,7c-1.9.9-4.4,1.7-5.7,3.4l.6.7c6.4-1.2,13.1-2.1,18.9-5.2,6.1-3.3,10.9-9.4,15.2-14.6l-.4-1.1v-.1ZM630.9,645.49l.7,15c0,4-.3,8.3,1.8,11.9,2,3.4,5.9,6.7,8.8,9.3,9.8,8.9,20.8,17.7,32.6,23.9l5.4-7.6,6.5-7c-13.9-11.6-24-24.9-35.6-38.6-1.1-1.3-1.6-2.5-3.2-2.6-5.9-.5-11.2-2.7-16.8-4.5l-.2.2ZM925.6,648.19c-8.2,8.7-15.1,18.5-22.4,28-5.7,7.4-12.4,15-17.1,23l7.7,3.1,9.5-5.7c16.8-9.7,33.4-19.9,43.9-36.9-5.8-4.2-14.5-10.6-21.7-11.5h.1ZM966.2,662.69c-13.1,12.9-26.6,24.8-38,39.3-6.2,7.9-11.5,14.1-12.3,24.5,1.5.4.9.4,1.7.3,19-11.4,35.8-23.5,50.1-40.6,1.3-6.8,2.1-17.3-1.5-23.5ZM609.1,671.29l-.2,17.5c0,6.2,11.7,15.8,15.9,19.8,10.5,10,21.9,22.4,34,30.3l1.3-1,2.7-11c-8.2-12.8-19.5-23.4-30.2-34.2-7.3-7.4-14.7-15.8-23.6-21.4h.1ZM589.7,695.39c.1,10.6,0,20.4,7.9,28.4,4.5,4.5,9.8,8.6,14.7,12.8,8,6.9,15.7,13.5,24.7,19.2-.1-4.4.8-11.8-.4-15.8-.4-1.6-33.7-35.2-38.4-39.5-2.5-2.4-5.3-3.9-8.6-5l.1-.1ZM973.6,700.19l-23.8,21.9c-5.4,4.8-13.1,10.4-16.3,16.9-3.5,7-4.8,18.6-6.7,26.4l6.4-4.4,48.9-43.1-8.5-17.7h0ZM803.5,716.49c-4.8,2.3-8.3,5.3-11.2,9.7,0,15.6,2.7,27.8,9.6,41.7,5.3-4.1,12.2-10.5,18.8-12.1,7,1.4,17.3,10.7,24.2,8.1l25.1-16.2c-.7-3.4-1-8.6-2.9-11.6-14.3-8.4-31.1-10.8-46.8-15.2-5.8-1.6-10.7-4.1-16.8-4.5v.1ZM770.8,717.69l-63.6,9.5c.5,9.3.9,19.1,8.3,25.7,6,5.4,11.4,6.7,19.2,6.4,8.7-1,18.1-2.6,26.9-1.2l13.1,12.1c3.8-11.7,8.9-24.2,10.6-36.4.4-3.1.8-6.1-.8-8.9-1.9-3.3-4.2-6.1-7.9-7.2-1.7-.5-3.9-.2-5.7,0h-.1ZM907.1,743.49c-4.4,5.5-17.6,24.9-23.8,25.2h-2.8c-1.6,3.2-2,7.1-2.8,10.7l-3.6,20.7,1,.3,2.6-3.2c11.9-15.7,25.4-30.7,35.6-47.6l-6.3-6,.1-.1ZM771.7,791.09c-3.6,1.3-7.4,3.1-11.2,3.7-13.7,2.2-27.7-.6-41.4,3.3,3.7,10.8,9.9,19.4,17,28.2l10.4-3,13.5-3.4c4.7,6.4,9.5,12.4,15.2,17.9l6.5-22.3c1.3-4.1,3.3-9,3.5-13.4,0-2.1-.4-4.2-1.5-6.1-1.4-2.4-3.4-4.1-6.1-4.8-1.9-.5-3.9-.3-5.8-.2l-.1.1ZM799.7,790.99c-3.3,2.5-6.8,5-7.4,9.4-1.5,11.4,5.6,26.7,10.6,36.6,3-2.2,6.2-4.4,8.3-7.6.9-1.4,3.2-6.6,4.2-7.4.3-.2,7.6.8,8.4.9l2.5.4c3.1.5,6.2.4,9.4.4l14-1.6,4.7-29.9c-6.2,1.7-13.3,4.3-19.8,4.5-6.4.2-14.6-1.7-20.7-3.4-4.9-1.4-9-3.2-14.2-2.5v.2ZM901.7,815.69l-21.5,24.8c-2.5,2.9-7.3,7.6-8.5,11.2-1.2,3.7-1.3,8.5-1.8,12.4l-2.7,17.2c-1.5,9.2-4.5,19.3-3.9,28.6l26.7-63.4c4.2-10,8.8-20.3,11.8-30.7l-.1-.1ZM846.2,847.99l-15.5,6.8c-1.9.9-5.3,2.7-7.4,2.7-5.9-.2-13.7-5.8-19.4-5-1.4.2-3.5,1.4-4.9,2-3.3,1.6-5.2,3.4-6.7,6.7-.7,12.5,5.3,24.8,5.8,37.4.2,2.6.3,5.3.8,7.8,5.9-8.5,13.1-21.6,22.2-26.6,6.7-3.7,14.4-6.3,21.6-8.9.5-.2,1.3,0,1.6-.6.6-1.1.6-4.7.8-6l2.4-15.9-1.4-.4h.1ZM771.5,852.79c-2.9,1.2-7,3.6-9.9,4.1-1.8.3-6.1-1-8.1-1.3-6.7-1-13.5-2.1-20.3-2.4.3,5.2.4,10.5,2,15.5,2.6,2.1,5.2,4.2,8.3,5.7,7.8,3.8,15,4.4,20.8,11.6l13.7,21.1c.6-7.1,1-14.4,2.2-21.4l3.8-17.4c.2-1.1,1-4,.8-4.9-.4-1.9-3-5.9-4.2-7.4-2.3-2.7-5.4-2.8-8.7-3.1h-.3l-.1-.1ZM810.7,973.69l2,120.5-65.7-119.7-84.7,3.8v220.5l63.3-2.9v-21.9c-.1,0-2-115.7-2-115.7l47.4,85.3c9.6,16.8,18.7,34.9,29.9,50.7l76.8,2.8-.7-221.5-66.3-1.8v-.1ZM897.4,976.09v221.7l143.4,12.1,30.4-51.2-103.1-10.9v-32l9.3,1,60.6,5.8v-28.8c0-8.5-.5-16.1,2-24.3l-71.6-6.5-.2-30.8,85.5,7.9,34.1-47.8-190.2-16.2h-.2ZM635.9,979.89l-179.6,20.3-.4,56.3,61.8-9.3.2,106.9v58.3l71.1-8.4.5-163.7,58.9-4.4v-56.9l-12.4.8-.1.1ZM1126.9,997.89c-17.3,1.2-29.1,4.5-40.7,18.2-12.8,15.1-17.3,34-15.5,53.5,1.4,16.3,7.9,29.1,20.6,39.5,17.1,14,39.1,23.5,58.3,34.6,5.7,3.3,12.1,6.5,17.1,10.8,2.3,2,4.5,4.4,4.9,7.6.3,2.7-.3,5.3-2,7.4-1.5,1.8-3.3,2.8-5.6,2.9-4.4.3-9.7-1-14.1-1.8l-26.3-4.5-42.6-6.6c-9.4,16.9-17.8,35.7-29,51.3l67.6,9.6,36.1,5.9c9.9,1.6,20.1,3.2,30.2,2.2,16.3-2.2,28.5-7.5,38.5-20.9,11.6-15.4,14.8-36.8,11.9-55.5-3-18.9-14.2-33.5-29.4-44.4-11.6-8.4-24.3-15.6-36.8-22.5-8.3-4.5-18.4-8.7-25.6-14.7-1.9-1.6-3.3-3.4-3.7-5.9-.4-2.4,0-4.2.6-6.4,2.2-2.6,3.9-3.6,7.4-3.8,8.2-.4,17.6,2,25.7,3.5l50.2,9.8,39.8-48.5-90.3-16.8c-15.7-2.3-31.4-5.3-47.3-4.3v-.2ZM440.9,1002.59l-66.8,12.1v220.1c.4.3.8.9,1.4.9l67-12.9-.5-169.8-.2-35.1c0-4.7.7-10.2,0-14.8l-.9-.4v-.1ZM350.6,1019.19l-151.6,34.4-.3,224.3,68.2-17.9v-80.9l73.7-15.7-.3-54.1-73.1,16.5-.2-35.1,89.2-19.5-.2-42c0-1.9.6-8.2,0-9.6-.2-.4-.7-.7-1-1.1l-4.4.6v.1ZM1305.4,1027.99c-17,1.1-29,5.5-40.3,18.6-12.7,14.5-18.8,35.3-17.4,54.5,1.3,17.4,7.5,30.5,20.8,41.9,14.3,12.3,32.6,22.7,49,31.8,8.6,4.8,18.4,9.3,26.1,15.3,3,2.3,7.4,6.4,7.4,10.5,0,2.6-1.6,5.3-3.5,7-1.6,1.4-3,2.1-5.1,1.9l-87.8-22.2-35.3,51.2,124.1,27.8c18.7,2.7,36.7,2.3,52.3-9.5,11-8.2,18-22,20-35.4,2.9-19.7-.8-42.7-13.4-58.7-7.7-9.7-18.4-18.1-28.6-25-12.3-8.4-25.9-15.3-38.6-23.2-5.1-3.1-10.9-6.2-15.2-10.3-1.9-1.8-4.5-4.6-4.1-7.4.3-2.8.8-5.7,3.1-7.6,2.1-1.7,5.5-2.3,8.2-1.9l76.5,20.4,28.7-50.2c-9.2-4.4-21.8-6.2-31.8-8.7l-51.1-12.9c-14.3-3.5-29-7.4-43.7-8l-.3.1Z"/>
      <path d="M723.6,152.29l.6-.4-.6.4Z"/>
      <path d="M767.7,205.29l-.5.6-1.2.5c-9,3.6-18.6,4-27.5,0l-14.6-8c1.3,2.9,3.4,6.2,3.4,9.4h-.6l-11.9-22c5.9-3.2,11.5-6.3,18.2-7.4l5.5-.9c-9-4.2-18.4-2.1-27.5.8,5.9-6.9,15.4-15.4,24.8-16.3,13.6-1.3,31.8,19.5,40.9,16.8l1.8-2.2c2,1.8,3.6,4.4,6.3,5.1,2.2-2,2.3-4.4,2.8-7.1l.7-3.5c.7,3.6,1.1,7.3,2.8,10.6l1.1.5c1.8-1.5,2.2-2.9,2.8-5h1.2c1.1,1.3,1.8,2.4,3.2,3.6,20.9-3.4,37-30,59.1-14.6,4.2,3,7.3,6.4,10.3,10.6-6-.8-13.3-2.7-19.3-2.3-4.1.3-8.4,1.7-12.4,2.7,3.3.2,7.1.2,10.3,1.1,5.4,1.4,11.6,5.1,16.7,7.5-3.1,3.2-6.4,6.4-8.8,10.1-2.3,3.6-3.2,7.5-6.3,10.6l3.3-7.7c-5.4,3.1-10.6,6.1-16.5,8.1l-1.4.5c-7.5,2.4-15.8,1.3-22.7-2.3l-4.6-2.7c2.9,3.9,5.7,8,9.1,11.4,2.5,2.6,6,4.8,8,7.7-9.3-2.6-18.3-12.4-25.9-18.2l2.4,18.2c.2,2.1.3,8,1.3,9.7,2,3.3,5.9,5,7.5,9,1.3,3.2.8,8-.6,11.1-3,6.9-13.7,9.1-20.2,11.6-6.5-1.5-15.8-3.6-20.4-8.7-3-3.3-3.9-7.6-3.6-11.9.2-2.2.9-4,2.6-5.4,2.8-2.2,5.8-3.9,6.9-7.5l.3-1.1,1-4,.3-1.4c1.2-5.8.6-11.6.3-17.4-9.1,6.4-17.8,13.2-28,17.7,6.7-5.6,13.1-10.7,18.9-17.3l.5-.6.7-.7-.7.7h.2ZM732.9,188.19l-6.3.7-.6,1.3c3.8,6.9,7.9,12.6,16,14.8,6.8,1.9,13,.9,19.3-1.9l4.5-3.4c0-2.1-1.1-3-2.4-4.6l-1.9-.4c-.8,1-1.6,2.7-2.9,2.8-4.8.6-11.1.6-15.3-2-1.8-2.3-2.4-3.8-2.9-6.6-2-1.3-5.2-.7-7.5-.6v-.1ZM835.3,187.99c-.6,3.6-.4,4.9-3,7.6-4.8,1.7-11,4.1-15.9,1.8l-1.7-1c0-1.9.6-2.1,1.8-3.6-2.5.7-3.9,1.8-5.8,3.4l-.3,1.6c2.8,4,5.4,5.3,10,7,4,.8,7.5,1.3,11.6.8h1c5.2-.9,10.5-3.3,13.8-7.6,1.5-1.9,4-6,3.9-8.5v-.7c-4.7-1.8-10.5-1.4-15.3-.8h-.1ZM749.1,192.59l.4.2-.4-.2ZM788.8,195.59c-3.8,2.5-7,5.1-10.2,8.3.3,8.1.6,15.9-.6,24l-.2,1.2c-.3,2.3-.6,3.5-2.3,5.3-3.2,1.3-6.2,2.1-8.4,5v2.7c2.8,2.2,5.2,2,8.8,2.4,3.5.4,5.4,1.1,8.3,2.9l3.3,2.1,6.6-3.5c3.3-1.8,6.7-1.4,10.3-1.3l2.4-1.5c.4-2.1.7-2.8-.5-4.7-1.1-1.8-4.2-3.2-6-4.2-2-3-1.9-6.3-2.1-9.8-.5-6.7-.4-16.8-2.7-22.9-.5-1.3-2-2.5-3-3.4-1.3-1.3-1.8-2.2-3.8-2.6h.1Z"/>
      <path d="M848.3,207.09l.6-.6-.6.6Z"/>
      <path d="M847.7,208.29l.7-1.2-.7,1.2Z"/>
      <path d="M824.1,221.49l.4.3-.4-.3Z"/>
      <path d="M295.6,300.89c-4.1-3.3-7.4-6.4-10.7-10.5h1c14.2.9,32.8-4.1,43.5-13.6-4.8-4.8-10.6-8.3-15.7-13,9,3.2,17.8,4.3,27.2,5.4-1.9-7.1-2.5-13.5-2.5-20.8,4.8,12,10.2,27.3,20.6,35.7l.9.7c-8.7,7-16.1,14.4-23.9,22.3-14.1,1.9-28.1,1.7-40.4-6.2Z"/>
      <path d="M848.6,274.89l.4-.4-.4.4Z"/>
      <path d="M802.9,295.69c-1.1.6-1.9,1.3-2.8,2.2,0,3,2,3.7,2,6.1-5.2-.8-10.4-1.5-15.7-1.4-4.1,0-8.7,1.3-12.7.6.6-1.8,1.7-3,2.9-4.5-2.7-4.3-11.4-9-15.5-12.2,10,1.4,20.1,3.3,30.2,3.2,8.4,0,16.9-1.6,25.1-3.2-4.3,3.6-8.5,6.4-13.4,9.2h-.1Z"/>
      <path d="M1325.8,386.19l.6.4-.6-.4Z"/>
      <path d="M300.9,455.09l.5.4-.5-.4Z"/>
      <path d="M750.7,460.79l-.4-.4.4.4Z"/>
      <path d="M823.8,461.39l.9-.4-.9.4Z"/>
      <path d="M705.8,475.69l-.8-.2.8.2Z"/>
      <path d="M861.5,478.29l.4-.5-.4.5Z"/>
      <path d="M863.6,513.79l1.5-.4-1.5.4Z"/>
      <path d="M263.5,880.99l36.9,46.6c3,3.9,8.5,9.7,10,14.1l-50.8,11.6-140.6-177-31.6-40.5-57.7-72.2c-9.7-12-21.8-24.7-29.7-37.9l161,.5c2.8,19.8,10.2,40.6,20.7,57.6-13.3-1.6-26.5-6.5-39.4-10.2l-55.7-15.6,176.7,222.9.2.1Z"/>
      <path d="M1310.2,952.59l-48.5-9.4,225.1-285.2-88,25.8-.3-.4,19.8-57.6,158.8-.3-262.1,327.8-4.8-.8v.1Z"/>
      <path d="M407.4,923.89l-76.7,13.8c-10.2-9.9-18.7-22-27.6-33.1l-51-63.9-79.8-99.8-44.1-55c10.8,3.7,22.1,6.4,33.1,9.6,16.3,4.8,33.5,11.4,50.3,13.1,12.4,1.3,25.9.1,38.2-1.3l168.5,215-10.9,1.6h0Z"/>
      <path d="M1172,926.29l-13.4-2.4c2.1-4.7,7.5-9.8,10.8-13.9l22.9-29,133.7-170.8c15.1,2.2,30.6,1.4,45.8,1.8,3.5,0,10.5,1.3,13.6.4,1.8-.5,4.2-8.4,5.9-9.7,1.9-1.4,9.3-2.7,12-3.5,12.1-3.5,24.5-6.9,36.3-11.4l.9-.4.6.6c-3.4,6.3-9,12.2-13.5,17.8l-28.9,35.8-97.3,123.9-37.8,47.7-20.6,25.7-71-12.7v.1Z"/>
      <path d="M810.8,1421.99l-23,17c-6.7-4.5-12.8-10.1-19.2-15l-44.6-33.6c-37.1-28.2-74.4-56.2-109.1-87.3-9.6-8.6-19.8-16.9-28.4-26.5l160.8-9.4,240.4,9.4c-8.8,10.5-19.6,19.9-30,28.8l-29.2,25-117.8,91.7.1-.1Z"/>
      <path d="M1017.2,1373.19c-51.8,46.5-106.7,89.4-163.9,129-21.5,14.8-42.9,29.9-65.5,43.1-79.7-49.6-154.2-106.8-224.6-169-30.9-27.3-62-55.4-89.9-85.8l90.8-11.6,222.8,176.4.9.8c78.5-54.6,154.6-111.3,223.6-177.7l88.8,11.1c-4.3,7.5-12.4,14.6-18.5,21l-64.6,62.7h.1Z"/>
      <path d="M177.9,1411.59l-26.3,9.5-13.6-53c33.1-13.1,68.5-22.3,102.9-31.1l165.7-36.2,52.1-8.4h.9l44.7,46c-7.2,1.9-15.7,2.3-23.2,3.5l-63.2,10.4c-59,10.9-117.7,23.7-175.5,39.9l-64.6,19.5.1-.1Z"/>
      <path d="M1401.1,1411.59c-18.8-7.2-39.2-12.3-58.6-17.9-62.8-18-127.6-31.7-192-42.9l-79.6-12.5,45.4-46.4,86.7,15.1c79.7,15.4,158.5,35,235.5,60.7l-13.2,52.4-24.3-8.6.1.1Z"/>
    </g>
  </g>
</svg>