<?xml version="1.0" encoding="utf-8"?>
<!-- Generator: Adobe Illustrator 25.0.1, SVG Export Plug-In . SVG Version: 6.00 Build 0)  -->
<svg version="1.0" id="katman_1" xmlns="http://www.w3.org/2000/svg" xmlns:xlink="http://www.w3.org/1999/xlink" x="0px" y="0px"
	 viewBox="0 0 560 400" style="enable-background:new 0 0 560 400;" xml:space="preserve">
<style type="text/css">
	.st0{fill-rule:evenodd;clip-rule:evenodd;fill:#0A0B09;}
	.st1{fill-rule:evenodd;clip-rule:evenodd;fill:#9A9B9D;}
</style>
<g id="SNET-Main-Site---Main-Design">
	<g id="Landing-Page" transform="translate(-855.000000, -3840.000000)">
		<g id="Components_x2F_As-Seen-On" transform="translate(0.000000, 3593.000000)">
			<g id="Group-2" transform="translate(60.000000, 100.000000)">
				<g id="Group-19" transform="translate(0.000000, 110.000000)">
					<g id="logo:-Huffpost" transform="translate(795.000000, 37.000000)">
						<polyline id="Fill-15" class="st0" points="106.4,222.2 122.6,222.2 131.3,172 115.1,172 111.9,190 97.8,190 101,172 
							84.8,172 76.1,222.2 92.3,222.2 95.6,203.4 109.6,203.4 106.4,222.2 						"/>
						<path id="Fill-16" class="st0" d="M139.5,174.6l-5,27.3c-0.4,2.1-0.6,4.2-0.6,6.1c0,14.5,13.1,16.7,21,16.7
							c16.5,0,23.6-5.3,26.2-19.6l5.5-30.6h-16.6l-4.7,25.7c-1.5,8-2.6,12.2-8.7,12.2c-4,0-6-2.1-6-6.3c0-1.6,0.3-3.6,0.8-6.1
							l4.8-25.4L139.5,174.6L139.5,174.6"/>
						<path id="Fill-17" class="st0" d="M299.3,196.9h-4.6l2.1-11.8h4.3c3.5,0,5.4,1.8,5.4,5.1C306.6,194.4,303.8,196.9,299.3,196.9
							z M274.3,222.2h16.1l2.3-12.9h7.6c14,0,21.8-7.7,21.8-21.7c0-9.9-6.7-15.5-18.5-15.5h-20.5L274.3,222.2L274.3,222.2z"/>
						<path id="Fill-18" class="st0" d="M347.6,211.6c-4.2,0-6.6-3.1-6.6-8.2c0-1.9,0.2-3.6,0.5-5.6c1.2-6.6,3.3-12.7,9.8-12.7
							c4.2,0,6.6,3.1,6.6,8.2c0,1.9-0.2,3.6-0.5,5.6C356.3,205.5,354.2,211.6,347.6,211.6z M352.4,172c-17.5,0-27.9,11.6-27.9,31
							c0,13.5,8.3,21.6,22.2,21.6c17.5,0,27.9-11.6,27.9-31C374.7,180.1,366.3,172,352.4,172L352.4,172z"/>
						<polyline id="Fill-19" class="st0" points="431.6,222.2 448.3,222.2 454.9,185.4 467.5,185.4 469.9,172 427.2,172 
							424.8,185.4 438.1,185.4 431.6,222.2 						"/>
						<path id="Fill-20" class="st0" d="M406,191.8c-5.1-1.6-7.2-2.3-7.2-4.8c0-1.6,1.1-3.6,4.2-3.6c2.3,0,4.2,1.3,5,3.3l14.4-3.9
							c-1.7-7.1-7.7-10.8-18.2-10.8c-19.7,0-21.2,13.3-21.2,17.4c0,8.3,4.3,13.3,13.7,16c2.5,0.7,5.3,1.4,5.3,4.2
							c0,2.2-1.6,3.6-4.4,3.6c-2.5,0-5.3-1.5-6.2-4.1l-14.2,3.9c1.5,7.5,8.5,11.8,19.5,11.8c8.4,0,22.4-2.3,22.4-17.5
							C419,199.5,414.8,194.5,406,191.8"/>
						<polyline id="Fill-21" class="st1" points="67.1,222.2 76.1,172 48.5,172 48.5,222.2 67.1,222.2 						"/>
						<polyline id="Fill-22" class="st1" points="476.4,172 467.4,222.2 495,222.2 495,172 476.4,172 						"/>
						<polyline id="Fill-23" class="st0" points="195.4,172 186.5,222.2 203.1,222.2 205.8,207.4 219.8,207.4 222.1,194.8 
							208.1,194.8 209.6,185.5 229.2,185.5 231.6,172 195.4,172 						"/>
						<polyline id="Fill-24" class="st0" points="238,172 229.1,222.2 245.8,222.2 248.4,207.4 262.4,207.4 264.7,194.8 
							250.7,194.8 252.3,185.5 271.9,185.5 274.3,172 238,172 						"/>
					</g>
				</g>
			</g>
		</g>
	</g>
</g>
</svg>
